<svg viewBox="0 0 500 500" xmlns="http://www.w3.org/2000/svg">
    <defs>
        <linearGradient id="hexGradient" x1="0%" y1="0%" x2="100%" y2="100%">
            <stop offset="0%" style="stop-color:#3d3b7a"/>
            <stop offset="100%" style="stop-color:#4a7bc8"/>
        </linearGradient>
    </defs>

    <!-- Outer hexagon with gradient -->
    <path d="M250 25 L450 137.5 L450 362.5 L250 475 L50 362.5 L50 137.5 Z"
          fill="url(#hexGradient)"/>

    <!-- White C shape - hexagonal ring with gap in upper right -->
    <!-- Outer boundary of the white ring -->
    <path d="M250 85 L90 185 L90 315 L250 415 L410 315 L410 185 L340 227.5 L340 160 L250 85 Z
             M140 205 L250 140 L250 360 L140 295 Z
             M250 140 L360 205 L360 295 L250 360 Z"
          fill="white" fill-rule="evenodd"/>

    <!-- 3D Cube -->
    <!-- Top face (light cyan/blue) -->
    <path d="M250 195 L325 237.5 L250 280 L175 237.5 Z"
          fill="#1a94d6"/>

    <!-- Left face (dark purple/navy) -->
    <path d="M175 237.5 L250 280 L250 365 L175 322.5 Z"
          fill="#2d3561"/>

    <!-- Right face (medium blue) -->
    <path d="M250 280 L325 237.5 L325 322.5 L250 365 Z"
          fill="#4a6fa5"/>
</svg>
