<svg viewBox="0 0 100 100" fill="none" xmlns="http://www.w3.org/2000/svg">
    <defs>
        <linearGradient id="hexGradient" x1="0%" y1="0%" x2="100%" y2="100%">
            <stop offset="0%" style="stop-color:#3d3b7a;stop-opacity:1" />
            <stop offset="100%" style="stop-color:#4a7bc8;stop-opacity:1" />
        </linearGradient>
    </defs>
    <!-- Outer hexagon -->
    <path d="M50 5 L90 27.5 L90 72.5 L50 95 L10 72.5 L10 27.5 Z" fill="url(#hexGradient)"/>

    <!-- White C shape - thick border with opening on upper right -->
    <path d="M50 20 L25 35 L25 65 L50 80 L75 65 L75 50 L65 56 L65 60 L50 70 L35 60 L35 40 L50 30 L60 36 L50 20 Z" fill="white"/>

    <!-- Inner cube - isometric 3D -->
    <!-- Top face (light blue) -->
    <path d="M50 35 L65 44 L50 53 L35 44 Z" fill="#63b3ed"/>

    <!-- Left face (dark purple) -->
    <path d="M35 44 L50 53 L50 65 L35 56 Z" fill="#2d3561"/>

    <!-- Right face (medium blue) -->
    <path d="M50 53 L65 44 L65 56 L50 65 Z" fill="#4a6fa5"/>
</svg>
