<svg viewBox="0 0 100 100" fill="none" xmlns="http://www.w3.org/2000/svg">
    <defs>
        <linearGradient id="hexGradient" x1="0%" y1="0%" x2="100%" y2="100%">
            <stop offset="0%" style="stop-color:#3d3b7a;stop-opacity:1" />
            <stop offset="100%" style="stop-color:#4a7bc8;stop-opacity:1" />
        </linearGradient>
    </defs>
    <!-- Outer hexagon -->
    <path d="M50 5 L90 27.5 L90 72.5 L50 95 L10 72.5 L10 27.5 Z" fill="url(#hexGradient)"/>

    <!-- Middle white C shape -->
    <path d="M50 20 L25 35 L25 65 L50 80 L50 65 L35 56 L35 44 L50 35 Z" fill="white"/>

    <!-- Inner cube/hexagon -->
    <path d="M50 35 L65 44 L65 56 L50 65 L35 56 L35 44 Z" fill="#1e88c7"/>

    <!-- Cube 3D effect - top face -->
    <path d="M50 35 L65 44 L50 53 Z" fill="#63b3d1" opacity="0.8"/>

    <!-- Cube 3D effect - left face -->
    <path d="M50 53 L35 44 L50 35 Z" fill="#3d3b7a" opacity="0.6"/>

    <!-- Cube 3D effect - bottom left -->
    <path d="M50 53 L50 65 L35 56 Z" fill="#2a2859" opacity="0.7"/>

    <!-- Cube 3D effect - bottom right -->
    <path d="M50 53 L65 56 L50 65 Z" fill="#4a7bc8" opacity="0.5"/>
</svg>
